{
  "accessors": [
    {
      "bufferView": 2,
      "componentType": 5126,
      "count": 3716,
      "max": [
        262.40765380859375,
        295.11767578125,
        1073.30322265625
      ],
      "min": [
        -402.974609375,
        -236.9961395263672,
        -1581.0894775390625
      ],
      "type": "VEC3"
    },
    {
      "bufferView": 2,
      "byteOffset": 44592,
      "componentType": 5126,
      "count": 3716,
      "max": [
        1.0,
        1.0,
        1.0
      ],
      "min": [
        -1.0,
        -1.0,
        -1.0
      ],
      "type": "VEC3"
    },
    {
      "bufferView": 1,
      "componentType": 5126,
      "count": 3716,
      "max": [
        0.9928572773933411,
        0.9928497076034546
      ],
      "min": [
        0.007142718881368637,
        0.00715029239654541
      ],
      "type": "VEC2"
    },
    {
      "bufferView": 0,
      "componentType": 5125,
      "count": 8520,
      "type": "SCALAR"
    },
    {
      "bufferView": 2,
      "byteOffset": 89184,
      "componentType": 5126,
      "count": 204,
      "max": [
        108.10295104980469,
        158.56968688964844,
        816.2672119140625
      ],
      "min": [
        -190.1029510498047,
        -88.6955795288086,
        -816.2672119140625
      ],
      "type": "VEC3"
    },
    {
      "bufferView": 2,
      "byteOffset": 91632,
      "componentType": 5126,
      "count": 204,
      "max": [
        1.0,
        1.0,
        1.0
      ],
      "min": [
        -1.0,
        -1.0,
        -1.0
      ],
      "type": "VEC3"
    },
    {
      "bufferView": 1,
      "byteOffset": 29728,
      "componentType": 5126,
      "count": 204,
      "max": [
        0.9914697408676147,
        0.9921505451202393
      ],
      "min": [
        0.00853023398667574,
        0.007849454879760742
      ],
      "type": "VEC2"
    },
    {
      "bufferView": 0,
      "byteOffset": 34080,
      "componentType": 5125,
      "count": 306,
      "type": "SCALAR"
    },
    {
      "bufferView": 2,
      "byteOffset": 94080,
      "componentType": 5126,
      "count": 204,
      "max": [
        190.1029510498047,
        158.56968688964844,
        816.2672119140625
      ],
      "min": [
        -108.10295104980469,
        -88.6955795288086,
        -816.2672119140625
      ],
      "type": "VEC3"
    },
    {
      "bufferView": 2,
      "byteOffset": 96528,
      "componentType": 5126,
      "count": 204,
      "max": [
        1.0,
        1.0,
        1.0
      ],
      "min": [
        -1.0,
        -1.0,
        -1.0
      ],
      "type": "VEC3"
    },
    {
      "bufferView": 1,
      "byteOffset": 31360,
      "componentType": 5126,
      "count": 204,
      "max": [
        0.9914697408676147,
        0.9921505451202393
      ],
      "min": [
        0.00853023398667574,
        0.007849454879760742
      ],
      "type": "VEC2"
    },
    {
      "bufferView": 0,
      "byteOffset": 35304,
      "componentType": 5125,
      "count": 306,
      "type": "SCALAR"
    },
    {
      "bufferView": 2,
      "byteOffset": 98976,
      "componentType": 5126,
      "count": 104,
      "max": [
        317.6889953613281,
        321.30694580078125,
        546.4063720703125
      ],
      "min": [
        -320.50665283203125,
        -160.5391387939453,
        -502.3348083496094
      ],
      "type": "VEC3"
    },
    {
      "bufferView": 2,
      "byteOffset": 100224,
      "componentType": 5126,
      "count": 104,
      "max": [
        1.0,
        1.0,
        1.0
      ],
      "min": [
        -1.0,
        -1.0,
        -1.0
      ],
      "type": "VEC3"
    },
    {
      "bufferView": 1,
      "byteOffset": 32992,
      "componentType": 5126,
      "count": 104,
      "max": [
        0.9914852380752563,
        0.9916989803314209
      ],
      "min": [
        0.0085147675126791,
        0.008301019668579102
      ],
      "type": "VEC2"
    },
    {
      "bufferView": 0,
      "byteOffset": 36528,
      "componentType": 5125,
      "count": 156,
      "type": "SCALAR"
    },
    {
      "bufferView": 2,
      "byteOffset": 101472,
      "componentType": 5126,
      "count": 24,
      "max": [
        94.4851303100586,
        127.35823059082031,
        1514.6849365234375
      ],
      "min": [
        -94.4851303100586,
        -127.35823059082031,
        -1514.6849365234375
      ],
      "type": "VEC3"
    },
    {
      "bufferView": 2,
      "byteOffset": 101760,
      "componentType": 5126,
      "count": 24,
      "max": [
        1.0,
        1.0,
        1.0
      ],
      "min": [
        -1.0,
        -1.0,
        -1.0
      ],
      "type": "VEC3"
    },
    {
      "bufferView": 1,
      "byteOffset": 33824,
      "componentType": 5126,
      "count": 24,
      "max": [
        1.0,
        1.0
      ],
      "min": [
        0.0,
        0.0
      ],
      "type": "VEC2"
    },
    {
      "bufferView": 0,
      "byteOffset": 37152,
      "componentType": 5125,
      "count": 36,
      "type": "SCALAR"
    },
    {
      "bufferView": 2,
      "byteOffset": 102048,
      "componentType": 5126,
      "count": 20,
      "max": [
        83.29254150390625,
        106.25052642822266,
        1514.6849365234375
      ],
      "min": [
        -83.29254150390625,
        -106.25052642822266,
        -1514.6849365234375
      ],
      "type": "VEC3"
    },
    {
      "bufferView": 2,
      "byteOffset": 102288,
      "componentType": 5126,
      "count": 20,
      "max": [
        1.0,
        1.0,
        1.0
      ],
      "min": [
        -1.0,
        -1.0,
        -0.0
      ],
      "type": "VEC3"
    },
    {
      "bufferView": 1,
      "byteOffset": 34016,
      "componentType": 5126,
      "count": 20,
      "max": [
        1.0,
        1.0
      ],
      "min": [
        0.0,
        0.0
      ],
      "type": "VEC2"
    },
    {
      "bufferView": 0,
      "byteOffset": 37296,
      "componentType": 5125,
      "count": 30,
      "type": "SCALAR"
    },
    {
      "bufferView": 2,
      "byteOffset": 102528,
      "componentType": 5126,
      "count": 20,
      "max": [
        63.3343620300293,
        91.47966766357422,
        1514.6849365234375
      ],
      "min": [
        -63.3343620300293,
        -91.47966766357422,
        -1514.6849365234375
      ],
      "type": "VEC3"
    },
    {
      "bufferView": 2,
      "byteOffset": 102768,
      "componentType": 5126,
      "count": 20,
      "max": [
        1.0,
        1.0,
        1.0
      ],
      "min": [
        -1.0,
        -1.0,
        -0.0
      ],
      "type": "VEC3"
    },
    {
      "bufferView": 1,
      "byteOffset": 34176,
      "componentType": 5126,
      "count": 20,
      "max": [
        1.0,
        1.0
      ],
      "min": [
        0.0,
        0.0
      ],
      "type": "VEC2"
    },
    {
      "bufferView": 0,
      "byteOffset": 37416,
      "componentType": 5125,
      "count": 30,
      "type": "SCALAR"
    },
    {
      "bufferView": 2,
      "byteOffset": 103008,
      "componentType": 5126,
      "count": 40,
      "max": [
        49.8876838684082,
        116.84534454345703,
        845.0118408203125
      ],
      "min": [
        -49.8876838684082,
        -132.6724853515625,
        -2296.15283203125
      ],
      "type": "VEC3"
    },
    {
      "bufferView": 2,
      "byteOffset": 103488,
      "componentType": 5126,
      "count": 40,
      "max": [
        1.0,
        1.0,
        1.0
      ],
      "min": [
        -1.0,
        -1.0,
        -1.0
      ],
      "type": "VEC3"
    },
    {
      "bufferView": 1,
      "byteOffset": 34336,
      "componentType": 5126,
      "count": 40,
      "max": [
        1.0,
        1.0
      ],
      "min": [
        0.0,
        0.0
      ],
      "type": "VEC2"
    },
    {
      "bufferView": 0,
      "byteOffset": 37536,
      "componentType": 5125,
      "count": 60,
      "type": "SCALAR"
    },
    {
      "bufferView": 2,
      "byteOffset": 103968,
      "componentType": 5126,
      "count": 12,
      "max": [
        7.624258041381836,
        197.73284912109375,
        310.758056640625
      ],
      "min": [
        -3.812129020690918,
        -197.73284912109375,
        -310.758056640625
      ],
      "type": "VEC3"
    },
    {
      "bufferView": 2,
      "byteOffset": 104112,
      "componentType": 5126,
      "count": 12,
      "max": [
        0.5000000596046448,
        0.7342829704284668,
        0.45916277170181274
      ],
      "min": [
        -1.0,
        -0.7342829704284668,
        -0.45916277170181274
      ],
      "type": "VEC3"
    },
    {
      "bufferView": 1,
      "byteOffset": 34656,
      "componentType": 5126,
      "count": 12,
      "max": [
        1.0,
        1.0
      ],
      "min": [
        0.0,
        0.0
      ],
      "type": "VEC2"
    },
    {
      "bufferView": 0,
      "byteOffset": 37776,
      "componentType": 5125,
      "count": 18,
      "type": "SCALAR"
    }
  ],
  "asset": {
    "extras": {
      "author": "HanSoloSnipe (https://sketchfab.com/HanSoloSnipe)",
      "license": "CC-BY-4.0 (http://creativecommons.org/licenses/by/4.0/)",
      "source": "https://sketchfab.com/3d-models/crane-vehicle-low-poly-e09723a3d0ef4615ab41ea605b7fccc8",
      "title": "Crane Vehicle [Low-Poly]"
    },
    "generator": "Sketchfab-12.68.0",
    "version": "2.0"
  },
  "bufferViews": [
    {
      "buffer": 0,
      "byteLength": 37848,
      "name": "floatBufferViews",
      "target": 34963
    },
    {
      "buffer": 0,
      "byteLength": 34752,
      "byteOffset": 37848,
      "byteStride": 8,
      "name": "floatBufferViews",
      "target": 34962
    },
    {
      "buffer": 0,
      "byteLength": 104256,
      "byteOffset": 72600,
      "byteStride": 12,
      "name": "floatBufferViews",
      "target": 34962
    }
  ],
  "buffers": [
    {
      "byteLength": 176856,
      "uri": "scene.bin"
    }
  ],
  "images": [
    {
      "uri": "textures/Main_baseColor.png"
    },
    {
      "uri": "textures/FootsL_baseColor.png"
    },
    {
      "uri": "textures/FootsR_baseColor.png"
    },
    {
      "uri": "textures/Cabin_baseColor.png"
    }
  ],
  "materials": [
    {
      "doubleSided": true,
      "name": "Main",
      "pbrMetallicRoughness": {
        "baseColorTexture": {
          "index": 0
        },
        "metallicFactor": 0.0,
        "roughnessFactor": 0.9524317154
      }
    },
    {
      "doubleSided": true,
      "name": "FootsL",
      "pbrMetallicRoughness": {
        "baseColorTexture": {
          "index": 1
        },
        "metallicFactor": 0.0,
        "roughnessFactor": 0.9524317154
      }
    },
    {
      "doubleSided": true,
      "name": "FootsR",
      "pbrMetallicRoughness": {
        "baseColorTexture": {
          "index": 2
        },
        "metallicFactor": 0.0,
        "roughnessFactor": 0.9524317154
      }
    },
    {
      "doubleSided": true,
      "name": "Cabin",
      "pbrMetallicRoughness": {
        "baseColorTexture": {
          "index": 3
        },
        "metallicFactor": 0.0,
        "roughnessFactor": 0.9524317154
      }
    },
    {
      "doubleSided": true,
      "name": "Contruct_Yellow",
      "pbrMetallicRoughness": {
        "baseColorFactor": [
          0.9720470726719795,
          0.503275286457476,
          0.023496928778151488,
          1.0
        ],
        "metallicFactor": 0.0
      }
    },
    {
      "doubleSided": true,
      "name": "Construct_Black",
      "pbrMetallicRoughness": {
        "baseColorFactor": [
          0.0,
          0.0,
          0.0,
          1.0
        ],
        "metallicFactor": 0.0,
        "roughnessFactor": 0.9524317154
      }
    }
  ],
  "meshes": [
    {
      "name": "_DontMove__MainTruck__Object__FBX_TEX__Main_0",
      "primitives": [
        {
          "attributes": {
            "NORMAL": 1,
            "POSITION": 0,
            "TEXCOORD_0": 2
          },
          "indices": 3,
          "material": 0,
          "mode": 4
        }
      ]
    },
    {
      "name": "_MoveX__NogiLeft__Object__FBX_TEX__FootsL_0",
      "primitives": [
        {
          "attributes": {
            "NORMAL": 5,
            "POSITION": 4,
            "TEXCOORD_0": 6
          },
          "indices": 7,
          "material": 1,
          "mode": 4
        }
      ]
    },
    {
      "name": "_MoveX__NogiRight__Object__FBX_TEX__FootsR_0",
      "primitives": [
        {
          "attributes": {
            "NORMAL": 9,
            "POSITION": 8,
            "TEXCOORD_0": 10
          },
          "indices": 11,
          "material": 2,
          "mode": 4
        }
      ]
    },
    {
      "name": "_DontMove__Cabin___Object__FBX_TEX__Cabin_0",
      "primitives": [
        {
          "attributes": {
            "NORMAL": 13,
            "POSITION": 12,
            "TEXCOORD_0": 14
          },
          "indices": 15,
          "material": 3,
          "mode": 4
        }
      ]
    },
    {
      "name": "_DontMove__0___InObject__Contruct Yellow_0",
      "primitives": [
        {
          "attributes": {
            "NORMAL": 17,
            "POSITION": 16,
            "TEXCOORD_0": 18
          },
          "indices": 19,
          "material": 4,
          "mode": 4
        }
      ]
    },
    {
      "name": "_MoveZ__25___InObject__Contruct Yellow_0",
      "primitives": [
        {
          "attributes": {
            "NORMAL": 21,
            "POSITION": 20,
            "TEXCOORD_0": 22
          },
          "indices": 23,
          "material": 4,
          "mode": 4
        }
      ]
    },
    {
      "name": "_MoveZ__50___InObject__Contruct Yellow_0",
      "primitives": [
        {
          "attributes": {
            "NORMAL": 25,
            "POSITION": 24,
            "TEXCOORD_0": 26
          },
          "indices": 27,
          "material": 4,
          "mode": 4
        }
      ]
    },
    {
      "name": "_MoveZ__75___Object__Contruct Yellow_0",
      "primitives": [
        {
          "attributes": {
            "NORMAL": 29,
            "POSITION": 28,
            "TEXCOORD_0": 30
          },
          "indices": 31,
          "material": 4,
          "mode": 4
        }
      ]
    },
    {
      "name": "_Scale_Rotate_Move__Nitj__Object__Construct Black_0",
      "primitives": [
        {
          "attributes": {
            "NORMAL": 33,
            "POSITION": 32,
            "TEXCOORD_0": 34
          },
          "indices": 35,
          "material": 5,
          "mode": 4
        }
      ]
    }
  ],
  "nodes": [
    {
      "children": [
        1
      ],
      "matrix": [
        1.0,
        0.0,
        0.0,
        0.0,
        0.0,
        2.220446049250313e-16,
        -1.0,
        0.0,
        0.0,
        1.0,
        2.220446049250313e-16,
        0.0,
        0.0,
        0.0,
        0.0,
        1.0
      ],
      "name": "Sketchfab_model"
    },
    {
      "children": [
        2
      ],
      "matrix": [
        1.0,
        0.0,
        0.0,
        0.0,
        0.0,
        0.0,
        1.0,
        0.0,
        0.0,
        -1.0,
        0.0,
        0.0,
        0.0,
        0.0,
        0.0,
        1.0
      ],
      "name": "Crane_vehicle.fbx"
    },
    {
      "children": [
        3
      ],
      "name": "RootNode"
    },
    {
      "children": [
        4,
        6,
        11
      ],
      "matrix": [
        1.0,
        0.0,
        0.0,
        0.0,
        0.0,
        1.0,
        0.0,
        0.0,
        0.0,
        0.0,
        1.0,
        0.0,
        -2.3040099143981934,
        88.9541244506836,
        0.4031651020050049,
        1.0
      ],
      "name": "_Scale_Rotate_Move__Crane__InObjects_"
    },
    {
      "children": [
        5
      ],
      "matrix": [
        1.0,
        0.0,
        0.0,
        0.0,
        0.0,
        1.0,
        0.0,
        0.0,
        0.0,
        0.0,
        1.0,
        0.0,
        72.58748626708984,
        -32.95265579223633,
        335.6028137207031,
        1.0
      ],
      "name": "_DontMove__MainTruck__Object__FBX_TEX_"
    },
    {
      "mesh": 0,
      "name": "_DontMove__MainTruck__Object__FBX_TEX__Main_0"
    },
    {
      "children": [
        7,
        9
      ],
      "matrix": [
        1.0,
        0.0,
        0.0,
        0.0,
        0.0,
        1.0,
        0.0,
        0.0,
        0.0,
        0.0,
        1.0,
        0.0,
        3.7172937393188477,
        -72.80890655517578,
        -393.829345703125,
        1.0
      ],
      "name": "_DontMove__Strahovka__InObjects_"
    },
    {
      "children": [
        8
      ],
      "matrix": [
        1.0,
        0.0,
        0.0,
        0.0,
        0.0,
        1.0,
        0.0,
        0.0,
        0.0,
        0.0,
        1.0,
        0.0,
        248.01795959472656,
        -63.224639892578125,
        -9.547738075256348,
        1.0
      ],
      "name": "_MoveX__NogiLeft__Object__FBX_TEX_"
    },
    {
      "mesh": 1,
      "name": "_MoveX__NogiLeft__Object__FBX_TEX__FootsL_0"
    },
    {
      "children": [
        10
      ],
      "matrix": [
        1.0,
        -1.2246467991473532e-16,
        0.0,
        0.0,
        1.2246467991473532e-16,
        1.0,
        0.0,
        0.0,
        0.0,
        0.0,
        1.0,
        0.0,
        -248.01795959472656,
        -63.224639892578125,
        -9.547738075256348,
        1.0
      ],
      "name": "_MoveX__NogiRight__Object__FBX_TEX_"
    },
    {
      "mesh": 2,
      "name": "_MoveX__NogiRight__Object__FBX_TEX__FootsR_0"
    },
    {
      "children": [
        12,
        14
      ],
      "matrix": [
        1.0,
        0.0,
        0.0,
        0.0,
        0.0,
        1.0,
        0.0,
        0.0,
        0.0,
        0.0,
        1.0,
        0.0,
        -6.021303653717041,
        119.79469299316406,
        -649.480224609375,
        1.0
      ],
      "name": "_RotateY__Strela__InObjects_"
    },
    {
      "children": [
        13
      ],
      "matrix": [
        1.0,
        0.0,
        0.0,
        0.0,
        0.0,
        1.0,
        0.0,
        0.0,
        0.0,
        0.0,
        1.0,
        0.0,
        15.477303504943848,
        141.65948486328125,
        -111.35862731933594,
        1.0
      ],
      "name": "_DontMove__Cabin___Object__FBX_TEX_"
    },
    {
      "mesh": 3,
      "name": "_DontMove__Cabin___Object__FBX_TEX__Cabin_0"
    },
    {
      "children": [
        15
      ],
      "matrix": [
        1.0,
        0.0,
        0.0,
        0.0,
        0.0,
        1.0,
        0.0,
        0.0,
        0.0,
        0.0,
        1.0,
        0.0,
        8.325313568115234,
        307.99908447265625,
        -92.99292755126953,
        1.0
      ],
      "name": "_RotateX__Strela__InObjects_"
    },
    {
      "children": [
        16,
        17
      ],
      "matrix": [
        1.0,
        0.0,
        0.0,
        0.0,
        0.0,
        1.0,
        0.0,
        0.0,
        0.0,
        0.0,
        1.0,
        0.0,
        0.0,
        0.0,
        1178.0574951171875,
        1.0
      ],
      "name": "_DontMove__0___InObject_"
    },
    {
      "mesh": 4,
      "name": "_DontMove__0___InObject__Contruct Yellow_0"
    },
    {
      "children": [
        18,
        19
      ],
      "matrix": [
        1.0,
        0.0,
        0.0,
        0.0,
        0.0,
        1.0,
        0.0,
        0.0,
        0.0,
        0.0,
        1.0,
        0.0,
        0.0,
        0.0,
        57.43118667602539,
        1.0
      ],
      "name": "_MoveZ__25___InObject_"
    },
    {
      "mesh": 5,
      "name": "_MoveZ__25___InObject__Contruct Yellow_0"
    },
    {
      "children": [
        20,
        21
      ],
      "matrix": [
        1.0,
        0.0,
        0.0,
        0.0,
        0.0,
        1.0,
        0.0,
        0.0,
        0.0,
        0.0,
        1.0,
        0.0,
        0.0,
        0.0,
        34.19478988647461,
        1.0
      ],
      "name": "_MoveZ__50___InObject_"
    },
    {
      "mesh": 6,
      "name": "_MoveZ__50___InObject__Contruct Yellow_0"
    },
    {
      "children": [
        22,
        23
      ],
      "matrix": [
        1.0,
        0.0,
        0.0,
        0.0,
        0.0,
        1.0,
        0.0,
        0.0,
        0.0,
        0.0,
        1.0,
        0.0,
        0.0,
        -7.91356897354126,
        841.3065185546875,
        1.0
      ],
      "name": "_MoveZ__75___Object_"
    },
    {
      "mesh": 7,
      "name": "_MoveZ__75___Object__Contruct Yellow_0"
    },
    {
      "children": [
        24
      ],
      "matrix": [
        1.0,
        0.0,
        0.0,
        0.0,
        0.0,
        1.0,
        0.0,
        0.0,
        0.0,
        0.0,
        1.0,
        0.0,
        0.0,
        -310.3457946777344,
        401.2204284667969,
        1.0
      ],
      "name": "_Scale_Rotate_Move__Nitj__Object_"
    },
    {
      "mesh": 8,
      "name": "_Scale_Rotate_Move__Nitj__Object__Construct Black_0"
    }
  ],
  "samplers": [
    {
      "magFilter": 9729,
      "minFilter": 9987,
      "wrapS": 10497,
      "wrapT": 10497
    }
  ],
  "scene": 0,
  "scenes": [
    {
      "name": "Sketchfab_Scene",
      "nodes": [
        0
      ]
    }
  ],
  "textures": [
    {
      "sampler": 0,
      "source": 0
    },
    {
      "sampler": 0,
      "source": 1
    },
    {
      "sampler": 0,
      "source": 2
    },
    {
      "sampler": 0,
      "source": 3
    }
  ]
}
